# xmcd CD database file generated by Grip 3.2.0
# 
# Track frame offsets:
#       150
#       21258
#       41612
#       70963
#       93815
#       118543
#       142913
#       162292
#       184642
#       209285
#       238360
# 
# Disc length: 3468 seconds
# 
# Revision: 1
# Processed by: cddbd v1.5.1PL0 Copyright (c) Steve Scherf et al.
# Submitted via: Grip 3.2.0
# 
DISCID=930d8a0b
DTITLE=John Taylor - Insight
DYEAR=2003
DGENRE=Jazz
TTITLE0=Glebe ascending
TTITLE1=Vaguely asian
TTITLE2=Between moons
TTITLE3=Ambleside
TTITLE4=Pure and simple
TTITLE5=Evans above
TTITLE6=Clapperclowe
TTITLE7=Namasti
TTITLE8=Everybody's song but my own
TTITLE9=Field day
TTITLE10=Handmade
EXTD=YEAR: 2003
EXTT0=
EXTT1=
EXTT2=
EXTT3=
EXTT4=
EXTT5=
EXTT6=
EXTT7=
EXTT8=
EXTT9=
EXTT10=
PLAYORDER=
